<svg width="16" height="13" viewBox="0 0 16 13" fill="none" xmlns="http://www.w3.org/2000/svg">
<path d="M1.76733 12.9918C1.27787 12.9918 0.860948 12.8196 0.516569 12.4752C0.17219 12.1308 0 11.7139 0 11.2244V1.78613C0 1.29149 0.17219 0.870148 0.516569 0.522097C0.860948 0.174032 1.27787 0 1.76733 0H14.2139C14.7085 0 15.1299 0.174032 15.4779 0.522097C15.826 0.870148 16 1.29149 16 1.78613V11.2244C16 11.7139 15.826 12.1308 15.4779 12.4752C15.1299 12.8196 14.7085 12.9918 14.2139 12.9918H1.76733ZM7.9906 7.25734C8.07834 7.25734 8.15981 7.24481 8.23502 7.21974C8.31022 7.19467 8.39257 7.15676 8.48205 7.10599L13.9506 3.44066C14.0133 3.40932 14.0729 3.34822 14.1293 3.25734C14.1857 3.16647 14.2139 3.06297 14.2139 2.94684C14.2139 2.72914 14.1105 2.55021 13.9036 2.41004C13.6968 2.26986 13.4869 2.27497 13.2738 2.42538L7.9906 5.88484L2.7262 2.42538C2.51312 2.2875 2.30004 2.27497 2.08696 2.38778C1.87387 2.50059 1.76733 2.68134 1.76733 2.93003C1.76733 3.04113 1.79867 3.14148 1.86134 3.23106C1.92401 3.32065 1.98787 3.39093 2.05291 3.44188L7.49954 7.10601C7.58876 7.15676 7.67098 7.19467 7.74618 7.21974C7.82139 7.24481 7.90286 7.25734 7.9906 7.25734Z" fill="#777C89"/>
</svg>
