<svg width="23" height="22" viewBox="0 0 23 22" fill="none" xmlns="http://www.w3.org/2000/svg">
<g clip-path="url(#clip0_1574_10936)">
<path d="M22.2843 11.2527C22.2843 10.505 22.2236 9.7532 22.0943 9.01758H11.7188V13.2535H17.6603C17.4138 14.6196 16.6216 15.8282 15.4615 16.5961V19.3446H19.0063C21.0879 17.4287 22.2843 14.5994 22.2843 11.2527Z" fill="#4285F4"/>
<path d="M11.7205 22.0015C14.6872 22.0015 17.1892 21.0274 19.0121 19.346L15.4673 16.5975C14.4811 17.2685 13.2079 17.6484 11.7245 17.6484C8.8548 17.6484 6.42158 15.7124 5.54853 13.1094H1.89062V15.9427C3.75798 19.6572 7.5614 22.0015 11.7205 22.0015V22.0015Z" fill="#34A853"/>
<path d="M5.54274 13.1095C5.08197 11.7433 5.08197 10.264 5.54274 8.89782V6.06445H1.88888C0.328708 9.17266 0.328708 12.8346 1.88888 15.9428L5.54274 13.1095V13.1095Z" fill="#FBBC04"/>
<path d="M11.7205 4.35386C13.2888 4.3296 14.8045 4.91972 15.9402 6.00295L19.0808 2.8624C17.0922 0.995046 14.4528 -0.0315938 11.7205 0.000741277C7.5614 0.000741277 3.75798 2.34504 1.89062 6.06357L5.54449 8.89694C6.4135 6.28992 8.85076 4.35386 11.7205 4.35386V4.35386Z" fill="#EA4335"/>
</g>
<defs>
<clipPath id="clip0_1574_10936">
<rect width="22" height="22" fill="white" transform="translate(0.5)"/>
</clipPath>
</defs>
</svg>
