<svg width="24" height="24" viewBox="0 0 24 24" fill="none" xmlns="http://www.w3.org/2000/svg">
<path d="M0 12C0 5.3726 5.3726 0 12 0C18.6274 0 24 5.3726 24 12C24 18.6274 18.6274 24 12 24C5.3726 24 0 18.6274 0 12Z" fill="#FFE812"/>
<path d="M12 5.5C7.5817 5.5 4 8.3241 4 11.8077C4 14.0599 5.4974 16.0361 7.74985 17.1521C7.6273 17.5747 6.9624 19.8709 6.9359 20.0513C6.9359 20.0513 6.92 20.1868 7.00775 20.2385C7.09555 20.2901 7.19875 20.25 7.19875 20.25C7.45045 20.2149 10.1175 18.3415 10.5791 18.0162C11.0403 18.0815 11.5151 18.1154 12 18.1154C16.4183 18.1154 20 15.2914 20 11.8077C20 8.3241 16.4183 5.5 12 5.5Z" fill="#381F1F"/>
<path fill-rule="evenodd" clip-rule="evenodd" d="M7.57601 14.0104C7.32146 14.0104 7.11446 13.8127 7.11446 13.5696V10.8277H6.39431C6.14456 10.8277 5.94141 10.6249 5.94141 10.3757C5.94141 10.1266 6.14461 9.92383 6.39431 9.92383H8.75771C9.00746 9.92383 9.21061 10.1266 9.21061 10.3757C9.21061 10.6249 9.00741 10.8277 8.75771 10.8277H8.03756V13.5696C8.03756 13.8127 7.83056 14.0104 7.57601 14.0104ZM11.6231 14.0044C11.4306 14.0044 11.2834 13.9262 11.239 13.8005L11.0105 13.2022L9.60306 13.2021L9.37441 13.8008C9.33016 13.9263 9.18301 14.0044 8.99056 14.0044C8.88931 14.0045 8.78921 13.9827 8.69716 13.9407C8.56991 13.882 8.44761 13.7206 8.58776 13.2853L9.69176 10.3794C9.76956 10.1584 10.0058 9.93073 10.3064 9.92388C10.6079 9.93068 10.8441 10.1584 10.922 10.3799L12.0256 13.2844C12.166 13.7207 12.0437 13.8822 11.9165 13.9407C11.8244 13.9827 11.7243 14.0044 11.6231 14.0044ZM10.3068 11.0751L10.7678 12.3847H9.84576L10.3068 11.0751ZM12.7683 13.9431C12.5244 13.9431 12.326 13.7532 12.326 13.52V10.3854C12.326 10.1308 12.5374 9.92383 12.7972 9.92383C13.0569 9.92383 13.2683 10.1308 13.2683 10.3854V13.0969H14.2491C14.493 13.0969 14.6914 13.2867 14.6914 13.52C14.6914 13.7532 14.493 13.9431 14.2491 13.9431H12.7683ZM14.8709 13.5428C14.8709 13.7974 15.0779 14.0044 15.3325 14.0044C15.4549 14.0042 15.5722 13.9555 15.6588 13.8689C15.7453 13.7824 15.794 13.665 15.7942 13.5426V12.5356L15.9543 12.3754L17.0367 13.8096C17.0796 13.8668 17.1352 13.9132 17.1993 13.9451C17.2633 13.977 17.3339 13.9934 17.4054 13.9931C17.5057 13.9933 17.6032 13.9606 17.683 13.8999C17.7315 13.8635 17.7723 13.8179 17.8031 13.7657C17.8338 13.7134 17.8539 13.6556 17.8621 13.5955C17.8707 13.5355 17.8673 13.4744 17.8521 13.4157C17.8369 13.357 17.8102 13.3019 17.7735 13.2536L16.6374 11.7485L17.6892 10.6969C17.7615 10.6245 17.7977 10.5247 17.791 10.4159C17.7844 10.308 17.7362 10.2041 17.6553 10.1233C17.5686 10.0367 17.4529 9.98698 17.3377 9.98698C17.2389 9.98698 17.1479 10.0234 17.0817 10.0897L15.794 11.3774V10.3854C15.794 10.1308 15.587 9.92383 15.3325 9.92383C15.0779 9.92383 14.8709 10.1308 14.8709 10.3854V13.5428Z" fill="#FFE812"/>
</svg>
