<svg width="13" height="16" viewBox="0 0 13 16" fill="none" xmlns="http://www.w3.org/2000/svg">
<path d="M11.2 5.33333H10.4V3.80952C10.4 1.70667 8.608 0 6.4 0C4.192 0 2.4 1.70667 2.4 3.80952V5.33333H1.6C0.72 5.33333 0 6.01905 0 6.85714V14.4762C0 15.3143 0.72 16 1.6 16H11.2C12.08 16 12.8 15.3143 12.8 14.4762V6.85714C12.8 6.01905 12.08 5.33333 11.2 5.33333ZM6.4 12.1905C5.52 12.1905 4.8 11.5048 4.8 10.6667C4.8 9.82857 5.52 9.14286 6.4 9.14286C7.28 9.14286 8 9.82857 8 10.6667C8 11.5048 7.28 12.1905 6.4 12.1905ZM4 5.33333V3.80952C4 2.54476 5.072 1.52381 6.4 1.52381C7.728 1.52381 8.8 2.54476 8.8 3.80952V5.33333H4Z" fill="#777C89"/>
</svg>
