<svg width="173" height="69" viewBox="0 0 173 69" fill="none" xmlns="http://www.w3.org/2000/svg">
<path d="M22.6488 11.6623V0.789062H11.7756L0.902344 11.6623V22.5355L11.7756 33.437H22.6488V22.5355H11.7756V11.6623H22.6488Z" fill="#0075FF"/>
<path d="M115.692 11.6623V0.789062H104.819L93.9453 11.6623V22.5355L104.819 33.437H115.692V22.5355H104.819V11.6623H115.692Z" fill="#0075FF"/>
<path d="M46.059 0.789062H35.1857L24.3125 11.6623V22.5355L35.1857 33.4088H46.059L56.9322 22.5355V11.6623L46.059 0.789062ZM35.1857 22.5355V11.6623H46.059V22.5355H35.1857Z" fill="#0075FF"/>
<path d="M139.633 0.789062V11.6623H128.76V0.789062H117.887V11.6623V22.5355V33.437H128.76V22.5355H139.633V33.437H150.535V22.5355V11.6623V0.789062H139.633Z" fill="#0075FF"/>
<path d="M80.8754 0.789062H70.0021L59.1289 11.6623V22.5355V33.4088H70.0021V27.5496H80.8754V33.4088H91.7486V22.5355V11.6623L80.8754 0.789062ZM70.0021 16.7046V11.6623H80.8754V16.7046H70.0021Z" fill="#0075FF"/>
<path d="M46.0559 47.042V36.1406H35.1826L24.2812 47.042V57.9153L35.1826 68.7885H46.0559V57.9153H35.1826V47.042H46.0559Z" fill="#6CD2A1"/>
<path d="M138 47.042V36.1406H127.127L116.254 47.042V57.9153L127.127 68.7885H138V57.9153H127.127V47.042H138Z" fill="#6CD2A1"/>
<path d="M69.4652 36.1406H58.592L47.7188 47.0139V57.8871L58.592 68.7603H69.4652L80.3385 57.8871V47.0139L69.4652 36.1406ZM58.5638 57.9153V47.042H69.4371V57.9153H58.5638Z" fill="#6CD2A1"/>
<path d="M161.407 36.1406V47.042H150.534V36.1406H139.633V47.042V57.9153V68.7885H150.534V57.9153H161.407V68.7885H172.281V57.9153V47.042V36.1406H161.407Z" fill="#6CD2A1"/>
<path d="M103.719 36.1406H92.8459L81.9727 47.0139V57.8871V68.7603H92.8459V62.9012H103.719V68.7603H114.592V57.8871V47.0139L103.719 36.1406ZM92.8459 52.0561V47.0139H103.719V52.0561H92.8459Z" fill="#6CD2A1"/>
</svg>
