<svg width="21" height="30" viewBox="0 0 21 30" fill="none" xmlns="http://www.w3.org/2000/svg">
<path d="M20.3774 10.1887C20.3774 19.2453 10.1887 30 10.1887 30C10.1887 30 0 19.6698 0 10.1887C0 4.56163 4.56163 0 10.1887 0C15.8157 0 20.3774 4.56163 20.3774 10.1887Z" fill="#0075FF"/>
<path d="M11.5981 7.80859L11.4077 14.1943H9.59229L9.40186 7.80859H11.5981ZM10.4937 17.127C9.85889 17.127 9.33838 16.6191 9.35107 15.9717C9.33838 15.3496 9.85889 14.8418 10.4937 14.8418C11.103 14.8418 11.6362 15.3496 11.6489 15.9717C11.6362 16.6191 11.103 17.127 10.4937 17.127Z" fill="white"/>
</svg>
