<svg width="29" height="34" viewBox="0 0 29 34" fill="none" xmlns="http://www.w3.org/2000/svg">
<path d="M18.3846 28.9231C18.3846 28.7248 18.3269 28.54 18.2274 28.3846H26.6154C27.1677 28.3846 27.6154 27.9369 27.6154 27.3846V25.8462C27.6154 25.5809 27.51 25.3266 27.3225 25.139L24.5385 22.355V15.0769C24.5385 10.2742 22.0962 6.03044 17.6154 4.59461V4.30769C17.6154 2.47848 16.1369 1 14.3077 1C12.4785 1 11 2.47848 11 4.30769V4.59521C6.53425 6.02973 4.07692 10.2576 4.07692 15.0769V22.355L1.29289 25.139C1.10536 25.3266 1 25.5809 1 25.8462V27.3846C1 27.9369 1.44772 28.3846 2 28.3846H10.388C10.2885 28.54 10.2308 28.7248 10.2308 28.9231C10.2308 31.1677 12.0631 33 14.3077 33C16.5523 33 18.3846 31.1677 18.3846 28.9231Z" stroke="#0075FF" stroke-width="2" stroke-linejoin="round"/>
</svg>
