<svg width="200" height="200" viewBox="0 0 200 200" fill="none" xmlns="http://www.w3.org/2000/svg">
<rect x="35" y="41.6445" width="111" height="147" rx="10" fill="#0075FF" fill-opacity="0.2"/>
<path d="M67.871 31.291H54C48.4772 31.291 44 35.7682 44 41.291V169.291C44 174.814 48.4772 179.291 54 179.291H145C150.523 179.291 155 174.814 155 169.291V137.517V118.42V41.291C155 35.7682 150.523 31.291 145 31.291H132.323" stroke="white" stroke-width="4" stroke-linejoin="round"/>
<mask id="path-3-inside-1_1506_7941" fill="white">
<path fill-rule="evenodd" clip-rule="evenodd" d="M90.565 20.5484C90.8739 15.2231 95.2902 11 100.693 11C106.096 11 110.512 15.2231 110.821 20.5484H122.548C125.309 20.5484 127.548 22.787 127.548 25.5484V33.4516C127.548 36.213 125.309 38.4516 122.548 38.4516H77.6445C74.8831 38.4516 72.6445 36.213 72.6445 33.4516V25.5484C72.6445 22.787 74.8831 20.5484 77.6445 20.5484H90.565Z"/>
</mask>
<path d="M90.565 20.5484V24.5484H94.3397L94.5583 20.78L90.565 20.5484ZM110.821 20.5484L106.828 20.78L107.046 24.5484H110.821V20.5484ZM94.5583 20.78C94.7452 17.558 97.4218 15 100.693 15V7C93.1587 7 87.0026 12.8883 86.5717 20.3167L94.5583 20.78ZM100.693 15C103.964 15 106.641 17.558 106.828 20.78L114.814 20.3167C114.383 12.8883 108.227 7 100.693 7V15ZM110.821 24.5484H122.548V16.5484H110.821V24.5484ZM122.548 24.5484C123.1 24.5484 123.548 24.9961 123.548 25.5484H131.548C131.548 20.5778 127.518 16.5484 122.548 16.5484V24.5484ZM123.548 25.5484V33.4516H131.548V25.5484H123.548ZM123.548 33.4516C123.548 34.0039 123.1 34.4516 122.548 34.4516V42.4516C127.518 42.4516 131.548 38.4222 131.548 33.4516H123.548ZM122.548 34.4516H77.6445V42.4516H122.548V34.4516ZM77.6445 34.4516C77.0922 34.4516 76.6445 34.0039 76.6445 33.4516H68.6445C68.6445 38.4222 72.674 42.4516 77.6445 42.4516V34.4516ZM76.6445 33.4516V25.5484H68.6445V33.4516H76.6445ZM76.6445 25.5484C76.6445 24.9961 77.0922 24.5484 77.6445 24.5484V16.5484C72.674 16.5484 68.6445 20.5778 68.6445 25.5484H76.6445ZM77.6445 24.5484H90.565V16.5484H77.6445V24.5484Z" fill="black" mask="url(#path-3-inside-1_1506_7941)"/>
<path d="M90.565 20.5484V24.5484H94.3397L94.5583 20.78L90.565 20.5484ZM110.821 20.5484L106.828 20.78L107.046 24.5484H110.821V20.5484ZM94.5583 20.78C94.7452 17.558 97.4218 15 100.693 15V7C93.1587 7 87.0026 12.8883 86.5717 20.3167L94.5583 20.78ZM100.693 15C103.964 15 106.641 17.558 106.828 20.78L114.814 20.3167C114.383 12.8883 108.227 7 100.693 7V15ZM110.821 24.5484H122.548V16.5484H110.821V24.5484ZM122.548 24.5484C123.1 24.5484 123.548 24.9961 123.548 25.5484H131.548C131.548 20.5778 127.518 16.5484 122.548 16.5484V24.5484ZM123.548 25.5484V33.4516H131.548V25.5484H123.548ZM123.548 33.4516C123.548 34.0039 123.1 34.4516 122.548 34.4516V42.4516C127.518 42.4516 131.548 38.4222 131.548 33.4516H123.548ZM122.548 34.4516H77.6445V42.4516H122.548V34.4516ZM77.6445 34.4516C77.0922 34.4516 76.6445 34.0039 76.6445 33.4516H68.6445C68.6445 38.4222 72.674 42.4516 77.6445 42.4516V34.4516ZM76.6445 33.4516V25.5484H68.6445V33.4516H76.6445ZM76.6445 25.5484C76.6445 24.9961 77.0922 24.5484 77.6445 24.5484V16.5484C72.674 16.5484 68.6445 20.5778 68.6445 25.5484H76.6445ZM77.6445 24.5484H90.565V16.5484H77.6445V24.5484Z" fill="white" mask="url(#path-3-inside-1_1506_7941)"/>
<path d="M85.7734 132.742H139.483" stroke="white" stroke-width="4" stroke-linecap="round" stroke-linejoin="round"/>
<path d="M85.7734 141.098H114.419" stroke="white" stroke-width="4" stroke-linecap="round" stroke-linejoin="round"/>
<path d="M85.7734 151.84H139.483" stroke="white" stroke-width="4" stroke-linecap="round" stroke-linejoin="round"/>
<path d="M85.7734 160.195H127.548" stroke="white" stroke-width="4" stroke-linecap="round" stroke-linejoin="round"/>
<path d="M59.5156 134.854L65.1187 142.291L75.0318 131.549" stroke="#0075FF" stroke-width="3" stroke-linecap="round"/>
<path d="M59.5156 153.952L65.1187 161.388L75.0318 150.646" stroke="#0075FF" stroke-width="3" stroke-linecap="round"/>
<path fill-rule="evenodd" clip-rule="evenodd" d="M69.593 90.0415C69.7196 90.1747 69.8483 90.3066 69.9791 90.4374L99.7734 120.232L99.7784 120.227L99.7833 120.232L129.578 90.4374C129.708 90.3066 129.837 90.1746 129.964 90.0414L130.322 89.6836L130.308 89.6705C138.006 81.1922 137.762 68.0738 129.578 59.8892C121.387 51.6989 108.256 51.4607 99.7784 59.1748C91.3007 51.4607 78.1694 51.6989 69.9791 59.8892C61.7945 68.0738 61.5509 81.1922 69.2482 89.6705L69.2351 89.6836L69.593 90.0415Z" fill="white"/>
<path d="M75.0312 83.772H88.1781L95.4819 68.291L105.707 93.3555L110.82 84.5092H123.967" stroke="#0075FF" stroke-width="4" stroke-linecap="round" stroke-linejoin="round"/>
</svg>
