<svg width="200" height="200" viewBox="0 0 200 200" fill="none" xmlns="http://www.w3.org/2000/svg">
<rect x="20" y="40.6543" width="115.888" height="150.28" rx="10" fill="#0075FF" fill-opacity="0.2"/>
<path d="M54.783 30.666H40.4687C34.9459 30.666 30.4688 35.1432 30.4688 40.666V171.414C30.4688 176.937 34.9459 181.414 40.4687 181.414H133.53C139.053 181.414 143.53 176.937 143.53 171.414V138.864M120.431 30.666H133.53C139.053 30.666 143.53 35.1432 143.53 40.666V119.413" stroke="white" stroke-width="4" stroke-linejoin="round"/>
<mask id="path-3-inside-1_1506_7843" fill="white">
<path fill-rule="evenodd" clip-rule="evenodd" d="M98.5296 19.7261H110.567C113.329 19.7261 115.567 21.9647 115.567 24.7261V32.9618C115.567 35.7232 113.329 37.9618 110.567 37.9618H64.6445C61.8831 37.9618 59.6445 35.7232 59.6445 32.9618V24.7261C59.6445 21.9647 61.8831 19.7261 64.6445 19.7261H77.8977C78.2121 14.3018 82.7105 10 88.2136 10C93.7168 10 98.2152 14.3018 98.5296 19.7261Z"/>
</mask>
<path d="M98.5296 19.7261L94.5363 19.9576L94.7548 23.7261H98.5296V19.7261ZM77.8977 19.7261V23.7261H81.6725L81.891 19.9576L77.8977 19.7261ZM98.5296 23.7261H110.567V15.7261H98.5296V23.7261ZM110.567 23.7261C111.119 23.7261 111.567 24.1738 111.567 24.7261H119.567C119.567 19.7555 115.538 15.7261 110.567 15.7261V23.7261ZM111.567 24.7261V32.9618H119.567V24.7261H111.567ZM111.567 32.9618C111.567 33.5141 111.119 33.9618 110.567 33.9618V41.9618C115.538 41.9618 119.567 37.9323 119.567 32.9618H111.567ZM110.567 33.9618H64.6445V41.9618H110.567V33.9618ZM64.6445 33.9618C64.0922 33.9618 63.6445 33.514 63.6445 32.9618H55.6445C55.6445 37.9323 59.674 41.9618 64.6445 41.9618V33.9618ZM63.6445 32.9618V24.7261H55.6445V32.9618H63.6445ZM63.6445 24.7261C63.6445 24.1738 64.0922 23.7261 64.6445 23.7261V15.7261C59.674 15.7261 55.6445 19.7556 55.6445 24.7261H63.6445ZM64.6445 23.7261H77.8977V15.7261H64.6445V23.7261ZM81.891 19.9576C82.0835 16.6366 84.8421 14 88.2136 14V6C80.5789 6 74.3407 11.967 73.9044 19.4946L81.891 19.9576ZM88.2136 14C91.5852 14 94.3438 16.6366 94.5363 19.9576L102.523 19.4946C102.087 11.967 95.8484 6 88.2136 6V14Z" fill="white" mask="url(#path-3-inside-1_1506_7843)"/>
<path d="M79.707 59.2363H118.61" stroke="white" stroke-width="4" stroke-linecap="round" stroke-linejoin="round"/>
<path d="M79.707 86.5898H118.61" stroke="white" stroke-width="4" stroke-linecap="round" stroke-linejoin="round"/>
<mask id="path-7-inside-2_1506_7843" fill="white">
<rect x="54.7812" y="51.334" width="15.8042" height="15.8042" rx="2"/>
</mask>
<rect x="54.7812" y="51.334" width="15.8042" height="15.8042" rx="2" stroke="white" stroke-width="6" mask="url(#path-7-inside-2_1506_7843)"/>
<mask id="path-8-inside-3_1506_7843" fill="white">
<rect x="54.7812" y="78.0801" width="15.8042" height="15.8042" rx="2"/>
</mask>
<rect x="54.7812" y="78.0801" width="15.8042" height="15.8042" rx="2" stroke="white" stroke-width="6" mask="url(#path-8-inside-3_1506_7843)"/>
<path d="M56.6055 74.4332L64.5076 85.3745L78.4882 69.5703" stroke="#0075FF" stroke-width="3" stroke-linecap="round"/>
<path d="M82.7422 129.139L90.0364 129.139" stroke="#0075FF" stroke-width="5" stroke-linecap="square" stroke-linejoin="round"/>
<path d="M130.156 129.139L147.176 129.139" stroke="#0075FF" stroke-width="5" stroke-linecap="square" stroke-linejoin="round"/>
<path d="M71.8008 103.609V154.061" stroke="#0075FF" stroke-width="5" stroke-linecap="round" stroke-linejoin="round"/>
<path d="M60.8594 112.119L60.8594 146.159" stroke="#0075FF" stroke-width="5" stroke-linecap="round" stroke-linejoin="round"/>
<path d="M49.918 120.629L49.918 137.649" stroke="#0075FF" stroke-width="5" stroke-linecap="round" stroke-linejoin="round"/>
<path d="M158.117 103.609V154.061" stroke="#0075FF" stroke-width="5" stroke-linecap="round" stroke-linejoin="round"/>
<path d="M169.059 112.119L169.059 146.159" stroke="#0075FF" stroke-width="5" stroke-linecap="round" stroke-linejoin="round"/>
<path d="M180 120.629L180 137.649" stroke="#0075FF" stroke-width="5" stroke-linecap="round" stroke-linejoin="round"/>
<path fill-rule="evenodd" clip-rule="evenodd" d="M105.234 141.905C106.848 141.905 108.3 141.205 109.301 140.093C110.357 141.373 111.955 142.189 113.744 142.189H116.327C116.488 142.189 116.646 142.177 116.801 142.154C116.643 142.297 116.488 142.446 116.336 142.6C114.313 144.659 112.922 147.697 113.472 151.828C113.582 152.649 114.336 153.226 115.157 153.117C115.979 153.007 116.556 152.253 116.446 151.432C116.024 148.269 117.064 146.14 118.476 144.703C119.943 143.21 121.87 142.416 123.155 142.159C123.833 142.024 124.33 141.443 124.36 140.753C124.39 140.063 123.944 139.442 123.281 139.248C117.576 137.584 115.947 135.53 115.608 134.184C115.306 132.979 115.868 131.673 116.783 130.656V130.963H119.783H124.724H126.753L132.424 137.149C132.865 139.249 133.209 142.161 133.273 144.854C133.307 146.282 133.261 147.609 133.121 148.695C132.974 149.839 132.745 150.511 132.554 150.798C130.622 153.697 127.435 156.198 124.577 158.441L124.576 158.442C124.085 158.827 123.604 159.205 123.14 159.576C122.747 159.891 122.537 160.382 122.583 160.883L123.799 174.256C123.874 175.081 124.603 175.689 125.428 175.614C126.253 175.539 126.861 174.81 126.786 173.985L125.644 161.42C125.873 161.24 126.109 161.055 126.351 160.866C129.183 158.651 132.824 155.802 135.051 152.462C135.646 151.569 135.938 150.309 136.096 149.079C136.262 147.791 136.308 146.302 136.272 144.783C136.2 141.75 135.797 138.44 135.265 136.101C135.208 135.847 135.084 135.612 134.908 135.42L128.222 128.126C128.081 127.972 127.911 127.851 127.724 127.768V120.629C127.724 117.608 125.275 115.159 122.254 115.159C121.088 115.159 120.008 115.523 119.121 116.144C118.294 113.98 116.198 112.443 113.744 112.443C111.639 112.443 109.797 113.574 108.794 115.26C107.837 114.439 106.593 113.943 105.234 113.943C102.311 113.943 99.9237 116.235 99.7708 119.12C99.1982 118.916 98.5818 118.806 97.9394 118.806C94.9181 118.806 92.4688 121.255 92.4688 124.276V136.434C92.4688 138.205 93.3103 139.779 94.6154 140.779V152.846C94.6154 152.888 94.6171 152.93 94.6206 152.971C94.7399 154.403 95.2983 156.51 96.6287 158.3C97.7779 159.846 99.5013 161.141 101.91 161.525V175.337C101.91 176.166 102.581 176.837 103.41 176.837C104.238 176.837 104.91 176.166 104.91 175.337V160.141C104.91 159.312 104.238 158.641 103.41 158.641C101.269 158.641 99.9207 157.7 99.0364 156.511C98.1255 155.285 97.7096 153.781 97.6154 152.78V141.895C97.7226 141.901 97.8307 141.904 97.9394 141.904C99.3404 141.904 100.618 141.378 101.586 140.511C102.554 141.378 103.832 141.905 105.234 141.905ZM112.699 134.915C113.093 136.484 114.126 137.923 115.893 139.189H113.744C112.222 139.189 110.989 137.956 110.989 136.434V118.198C110.989 116.677 112.222 115.443 113.744 115.443C115.265 115.443 116.499 116.677 116.499 118.198V127.639H116.175C115.798 127.639 115.434 127.781 115.157 128.037C113.67 129.41 111.96 131.975 112.699 134.915ZM119.783 127.639H124.724V120.629C124.724 119.265 123.618 118.159 122.254 118.159C120.889 118.159 119.783 119.265 119.783 120.629V127.639ZM107.704 119.414V136.434C107.704 137.799 106.598 138.905 105.234 138.905C104.403 138.905 103.668 138.495 103.221 137.867C103.344 137.41 103.41 136.929 103.41 136.434V124.276C103.41 123.342 103.176 122.462 102.763 121.693V119.414C102.763 118.05 103.869 116.943 105.234 116.943C106.598 116.943 107.704 118.05 107.704 119.414ZM99.763 122.609C99.3112 122.115 98.6615 121.806 97.9394 121.806C96.5749 121.806 95.4688 122.912 95.4688 124.276V136.434C95.4688 137.798 96.5749 138.904 97.9394 138.904C98.7698 138.904 99.5045 138.495 99.9524 137.866C99.8289 137.41 99.763 136.93 99.763 136.434V122.609Z" fill="white"/>
</svg>
