<svg width="46" height="46" viewBox="0 0 46 46" fill="none" xmlns="http://www.w3.org/2000/svg">
<g clip-path="url(#clip0_1820_10000)">
<path d="M29.6703 34.8184L28.5904 33.8461L27.332 34.5726L27.9231 33.2451L26.8432 32.2728L28.2883 32.4247L28.8793 31.0973L29.1815 32.5186L30.6266 32.6705L29.3682 33.397L29.6703 34.8184Z" fill="url(#paint0_linear_1820_10000)"/>
<path d="M34.7328 29.5859L33.6529 28.6136L32.3945 29.3402L32.9856 28.0127L31.9057 27.0404L33.3508 27.1923L33.9418 25.8648L34.244 27.2862L35.6891 27.4381L34.4307 28.1646L34.7328 29.5859Z" fill="url(#paint1_linear_1820_10000)"/>
<path d="M22.6078 36.5859L21.5279 35.6136L20.2695 36.3402L20.8606 35.0127L19.7807 34.0404L21.2258 34.1923L21.8168 32.8648L22.119 34.2862L23.5641 34.4381L22.3057 35.1646L22.6078 36.5859Z" fill="url(#paint2_linear_1820_10000)"/>
<path d="M15.6696 10.5703L16.7494 11.5426L18.0078 10.8161L17.4168 12.1435L18.4966 13.1158L17.0515 12.9639L16.4605 14.2914L16.1584 12.8701L14.7133 12.7182L15.9717 11.9916L15.6696 10.5703Z" fill="url(#paint3_linear_1820_10000)"/>
<path d="M10.6071 15.8027L11.6869 16.775L12.9453 16.0485L12.3543 17.376L13.4341 18.3483L11.989 18.1964L11.398 19.5238L11.0959 18.1025L9.65076 17.9506L10.9092 17.2241L10.6071 15.8027Z" fill="url(#paint4_linear_1820_10000)"/>
<path d="M22.7321 8.80273L23.8119 9.77504L25.0703 9.0485L24.4793 10.376L25.5591 11.3483L24.114 11.1964L23.523 12.5238L23.2209 11.1025L21.7758 10.9506L23.0342 10.2241L22.7321 8.80273Z" fill="url(#paint5_linear_1820_10000)"/>
<path fill-rule="evenodd" clip-rule="evenodd" d="M29.5256 26.8183C28.8498 27.9442 27.8868 28.9192 26.6689 29.6223C25.4511 30.3254 24.1252 30.6719 22.8122 30.6943L21.2695 31.5849C23.2336 31.8953 25.3128 31.56 27.1689 30.4883C29.0251 29.4167 30.3551 27.7837 31.0683 25.9276L29.5256 26.8183ZM15.8122 18.5699C16.488 17.444 17.4511 16.469 18.6689 15.7659C19.8868 15.0627 21.2127 14.7162 22.5256 14.6939L24.0683 13.8032C22.1043 13.4929 20.0251 13.8282 18.1689 14.8998C16.3128 15.9715 14.9828 17.6045 14.2695 19.4606L15.8122 18.5699Z" fill="url(#paint6_linear_1820_10000)"/>
<path d="M2.63535 30.2267C1.96333 29.845 1.95997 28.8777 2.62931 28.4912L37.7102 8.23728C38.3795 7.85084 39.2155 8.33739 39.2102 9.11027L39.186 12.5744C39.1835 12.9366 39.3771 13.2719 39.6921 13.4508L42.7041 15.162C43.3762 15.5438 43.3795 16.5111 42.7102 16.8975L7.62931 37.1515C6.95996 37.5379 6.12396 37.0514 6.12934 36.2785L6.15345 32.8144C6.15597 32.4521 5.9624 32.1169 5.64743 31.9379L2.63535 30.2267Z" fill="url(#paint7_linear_1820_10000)"/>
<path d="M9.85497 29.2092C9.5597 28.8384 9.10154 28.7714 8.67529 29.0175C8.10188 29.3485 7.98126 30.0068 8.42658 30.7781C8.88361 31.5697 9.50735 31.7711 10.0706 31.446C10.4918 31.2028 10.6665 30.7907 10.5141 30.3509L11.2884 29.9107C11.5947 30.6404 11.3838 31.5876 10.4501 32.1267C9.46568 32.6951 8.34161 32.4239 7.6502 31.2263C6.95879 30.0288 7.30121 28.9109 8.27042 28.3514C9.11784 27.8621 10.0385 27.9801 10.6263 28.7639L9.85497 29.2092ZM14.7157 27.147C15.4072 28.3446 15.0597 29.4654 14.0905 30.0249C13.1111 30.5904 11.9689 30.3229 11.2804 29.1304C10.589 27.9329 10.9314 26.815 11.9108 26.2496C12.88 25.69 14.0243 25.9495 14.7157 27.147ZM13.9394 27.5953C13.4853 26.8088 12.8687 26.5964 12.3004 26.9245C11.7321 27.2526 11.6027 27.8957 12.0568 28.6822C12.5109 29.4687 13.1325 29.6782 13.7008 29.3501C14.2691 29.0219 14.3935 28.3818 13.9394 27.5953ZM14.0733 25.0687L15.0172 24.5238L17.4756 26.4264L17.5162 26.403L17.0977 23.3226L18.0415 22.7777L20.1626 26.4515L19.4217 26.8793L18.033 24.474L18.0026 24.4916L18.4234 27.4353L17.916 27.7283L15.5712 25.8818L15.5407 25.8994L16.9353 28.3148L16.1944 28.7426L14.0733 25.0687ZM20.6517 26.1691L18.5307 22.4953L19.9718 21.6632C20.809 21.1798 21.5819 21.417 22.0009 22.1426C22.4257 22.8784 22.2286 23.662 21.3812 24.1513L20.7215 24.5321L21.4129 25.7297L20.6517 26.1691ZM20.367 23.9181L20.9049 23.6076C21.3565 23.3468 21.4282 22.9671 21.2144 22.5967C21.0034 22.2314 20.6417 22.1087 20.19 22.3694L19.6522 22.68L20.367 23.9181ZM23.7593 24.375L21.6382 20.7011L22.3994 20.2617L24.1572 23.3063L25.7404 22.3922L26.1036 23.0215L23.7593 24.375ZM26.466 22.8123L24.3449 19.1384L26.811 17.7146L27.1743 18.3438L25.4693 19.3282L25.9849 20.2213L27.5631 19.3102L27.9263 19.9394L26.3482 20.8505L26.8638 21.7436L28.5739 20.7563L28.9372 21.3855L26.466 22.8123ZM27.496 18.1581L27.1327 17.5289L30.1418 15.7916L30.5051 16.4208L29.3786 17.0712L31.1364 20.1158L30.3803 20.5523L28.6225 17.5077L27.496 18.1581ZM32.6049 19.2679L30.4838 15.5941L32.95 14.1703L33.3133 14.7995L31.6083 15.7839L32.1239 16.677L33.702 15.7658L34.0653 16.3951L32.4872 17.3062L33.0028 18.1993L34.7129 17.212L35.0761 17.8412L32.6049 19.2679ZM36.8288 16.8293L35.5349 17.5763L33.4138 13.9025L34.723 13.1466C35.8292 12.508 36.9025 12.8084 37.5617 13.9502C38.2267 15.1021 37.9503 16.1818 36.8288 16.8293ZM35.9181 16.4823L36.4205 16.1923C37.1207 15.788 37.2751 15.2117 36.8005 14.3896C36.3288 13.5727 35.7555 13.4233 35.0603 13.8247L34.5529 14.1176L35.9181 16.4823Z" fill="white"/>
<path fill-rule="evenodd" clip-rule="evenodd" d="M13.3758 7.79785C13.5503 7.38826 13.9745 7.14334 14.4165 7.19704L16.8426 7.49183C17.1523 7.52946 17.4618 7.42039 17.6795 7.19691L19.3849 5.44623C19.6955 5.12733 20.1796 5.05219 20.5723 5.26192L22.7281 6.41322C23.0033 6.5602 23.3313 6.5703 23.615 6.44055L25.8376 5.42414C26.2425 5.23899 26.721 5.34379 27.0114 5.68121L28.6058 7.53354C28.8093 7.77 29.1115 7.89792 29.423 7.87943L31.8627 7.73455C32.3071 7.70816 32.7154 7.97873 32.8643 8.39828L32.961 8.67062L30.6624 9.99772C26.1055 7.13482 20.1552 6.82641 15.1703 9.70445C10.1854 12.5825 7.47737 17.8898 7.67824 23.2676L5.3797 24.5947L5.19218 24.3748C4.90331 24.0361 4.87315 23.5471 5.11821 23.1755L6.46352 21.1351C6.63526 20.8746 6.67559 20.5489 6.57257 20.2544L5.76557 17.9475C5.61857 17.5273 5.76707 17.0605 6.12985 16.8024L8.12138 15.3858C8.37562 15.205 8.53088 14.9158 8.5412 14.604L8.62204 12.1614C8.63677 11.7164 8.94387 11.3348 9.37537 11.2252L11.7442 10.6237C12.0466 10.5469 12.2958 10.3334 12.418 10.0463L13.3758 7.79785ZM14.6783 35.392L13.5132 36.0646C13.7373 36.1424 13.9288 36.2983 14.0501 36.5074L15.2769 38.6211C15.5004 39.0061 15.9515 39.1971 16.3835 39.0895L18.755 38.4988C19.0578 38.4234 19.3784 38.4936 19.6219 38.6886L21.5294 40.2165C21.8769 40.4948 22.3665 40.5099 22.7305 40.2535L24.7285 38.846C24.9835 38.6663 25.3078 38.6159 25.6053 38.7098L27.936 39.4454C28.3606 39.5794 28.8226 39.4166 29.0693 39.046L30.4239 37.0118C30.5969 36.7521 30.8811 36.5881 31.1924 36.5681L33.6314 36.4121C34.0757 36.3837 34.4477 36.065 34.544 35.6303L35.0723 33.2441C35.1397 32.9395 35.3454 32.6838 35.6286 32.5528L37.8465 31.5262C38.2505 31.3392 38.4823 30.9077 38.415 30.4676L38.0456 28.0517C37.9985 27.7433 38.098 27.4305 38.3146 27.206L40.012 25.4476C40.3211 25.1273 40.3813 24.6411 40.1596 24.2551L38.9425 22.1357C38.8221 21.9262 38.7829 21.6823 38.8275 21.4494L37.6624 22.1221C37.8632 27.5 35.1552 32.8072 30.1703 35.6852C25.1854 38.5633 19.2352 38.2549 14.6783 35.392Z" fill="url(#paint8_linear_1820_10000)"/>
</g>
<defs>
<linearGradient id="paint0_linear_1820_10000" x1="29.6703" y1="34.8184" x2="27.6703" y2="31.3543" gradientUnits="userSpaceOnUse">
<stop offset="0.965" stop-color="#A22BF0"/>
</linearGradient>
<linearGradient id="paint1_linear_1820_10000" x1="34.7328" y1="29.5859" x2="32.7328" y2="26.1218" gradientUnits="userSpaceOnUse">
<stop offset="0.965" stop-color="#A22BF0"/>
</linearGradient>
<linearGradient id="paint2_linear_1820_10000" x1="22.6078" y1="36.5859" x2="20.6078" y2="33.1218" gradientUnits="userSpaceOnUse">
<stop offset="0.965" stop-color="#A22BF0"/>
</linearGradient>
<linearGradient id="paint3_linear_1820_10000" x1="15.6696" y1="10.5703" x2="17.6696" y2="14.0344" gradientUnits="userSpaceOnUse">
<stop stop-color="#0075FF"/>
</linearGradient>
<linearGradient id="paint4_linear_1820_10000" x1="10.6071" y1="15.8027" x2="12.6071" y2="19.2668" gradientUnits="userSpaceOnUse">
<stop stop-color="#0075FF"/>
</linearGradient>
<linearGradient id="paint5_linear_1820_10000" x1="22.7321" y1="8.80273" x2="24.7321" y2="12.2668" gradientUnits="userSpaceOnUse">
<stop stop-color="#0075FF"/>
</linearGradient>
<linearGradient id="paint6_linear_1820_10000" x1="18.1689" y1="14.8998" x2="27.1689" y2="30.4883" gradientUnits="userSpaceOnUse">
<stop stop-color="#0075FF"/>
<stop offset="0.965" stop-color="#A22BF0"/>
</linearGradient>
<linearGradient id="paint7_linear_1820_10000" x1="20.1697" y1="18.3643" x2="25.1697" y2="27.0245" gradientUnits="userSpaceOnUse">
<stop stop-color="#0075FF"/>
<stop offset="0.965" stop-color="#A22BF0"/>
</linearGradient>
<linearGradient id="paint8_linear_1820_10000" x1="13.7959" y1="7.32369" x2="31.4023" y2="37.819" gradientUnits="userSpaceOnUse">
<stop stop-color="#0075FF"/>
<stop offset="0.965" stop-color="#A22BF0"/>
</linearGradient>
<clipPath id="clip0_1820_10000">
<rect width="46" height="46" fill="white"/>
</clipPath>
</defs>
</svg>
