<svg width="17" height="16" viewBox="0 0 17 16" fill="none" xmlns="http://www.w3.org/2000/svg">
<path d="M8.5 7.72947C7.33125 7.72947 6.375 7.36876 5.63125 6.64734C4.8875 5.92593 4.51562 4.99839 4.51562 3.86473C4.51562 2.73108 4.8875 1.80354 5.63125 1.08213C6.375 0.360709 7.33125 0 8.5 0C9.66875 0 10.625 0.360709 11.3688 1.08213C12.1125 1.80354 12.4844 2.73108 12.4844 3.86473C12.4844 4.99839 12.1125 5.92593 11.3688 6.64734C10.625 7.36876 9.66875 7.72947 8.5 7.72947ZM1.59375 16C1.15104 16 0.77474 15.8497 0.464844 15.5491C0.154948 15.2485 0 14.8835 0 14.4541V13.5781C0 12.9254 0.168229 12.3672 0.504687 11.9034C0.841146 11.4396 1.275 11.0875 1.80625 10.847C2.99271 10.3317 4.13047 9.94525 5.21953 9.6876C6.30859 9.42995 7.40208 9.30113 8.5 9.30113C9.59792 9.30113 10.687 9.43425 11.7672 9.70048C12.8474 9.96672 13.9807 10.3489 15.1672 10.847C15.7161 11.0875 16.1589 11.4396 16.4953 11.9034C16.8318 12.3672 17 12.9254 17 13.5781V14.4541C17 14.8835 16.8451 15.2485 16.5352 15.5491C16.2253 15.8497 15.849 16 15.4062 16H1.59375Z" fill="#676E81"/>
</svg>
