<svg width="30" height="30" viewBox="0 0 30 30" fill="none" xmlns="http://www.w3.org/2000/svg">
<path fill-rule="evenodd" clip-rule="evenodd" d="M15.5 22C22.4036 22 28 18.1944 28 13.5C28 8.80558 22.4036 5 15.5 5C8.59644 5 3 8.80558 3 13.5C3 16.1935 4.84241 18.5944 7.71703 20.1518L5.5621 24.2049L10.6056 21.3237C12.1087 21.7591 13.763 22 15.5 22Z" fill="#0075FF"/>
<path d="M16.5981 8.80859L16.4077 15.1943H14.5923L14.4019 8.80859H16.5981ZM15.4937 18.127C14.8589 18.127 14.3384 17.6191 14.3511 16.9717C14.3384 16.3496 14.8589 15.8418 15.4937 15.8418C16.103 15.8418 16.6362 16.3496 16.6489 16.9717C16.6362 17.6191 16.103 18.127 15.4937 18.127Z" fill="white"/>
</svg>
