<svg width="26" height="45" viewBox="0 0 26 45" fill="none" xmlns="http://www.w3.org/2000/svg">
<path d="M0 1C0 0.447715 0.447715 0 1 0H25C25.5523 0 26 0.447715 26 1V43.0744C26 43.8844 25.0874 44.3583 24.4248 43.8925L13.5752 36.2638C13.2301 36.0212 12.7699 36.0212 12.4248 36.2638L1.57518 43.8925C0.912591 44.3583 0 43.8844 0 43.0744V1Z" fill="#0075FF"/>
<path d="M5.50859 10.3125V9.34375H10.1414V10.3125H8.40703V15H7.24297V10.3125H5.50859ZM15.5977 12.1719C15.5977 14.0156 14.4492 15.0781 12.957 15.0781C11.4492 15.0781 10.3086 14.0078 10.3086 12.1719C10.3086 10.3281 11.4492 9.26562 12.957 9.26562C14.4492 9.26562 15.5977 10.3281 15.5977 12.1719ZM14.4023 12.1719C14.4023 10.9609 13.832 10.3047 12.957 10.3047C12.082 10.3047 11.5039 10.9609 11.5039 12.1719C11.5039 13.3828 12.082 14.0391 12.957 14.0391C13.832 14.0391 14.4023 13.3828 14.4023 12.1719ZM16.2414 15V9.34375H18.4602C19.7492 9.34375 20.4836 10.1328 20.4836 11.25C20.4836 12.3828 19.7336 13.1562 18.4289 13.1562H17.4133V15H16.2414ZM17.4133 12.2109H18.2414C18.9367 12.2109 19.2727 11.8203 19.2727 11.25C19.2727 10.6875 18.9367 10.3047 18.2414 10.3047H17.4133V12.2109ZM14.5117 19.5156V28H12.7422V21.1914H12.6953L10.75 22.4102V20.8516L12.8477 19.5156H14.5117Z" fill="white"/>
</svg>
