<svg width="26" height="45" viewBox="0 0 26 45" fill="none" xmlns="http://www.w3.org/2000/svg">
<path d="M0 1C0 0.447715 0.447715 0 1 0H25C25.5523 0 26 0.447715 26 1V43.0744C26 43.8844 25.0874 44.3583 24.4248 43.8925L13.5752 36.2638C13.2301 36.0212 12.7699 36.0212 12.4248 36.2638L1.57518 43.8925C0.912591 44.3583 0 43.8844 0 43.0744V1Z" fill="#F5A541"/>
<path d="M5.50859 10.3125V9.34375H10.1414V10.3125H8.40703V15H7.24297V10.3125H5.50859ZM15.5977 12.1719C15.5977 14.0156 14.4492 15.0781 12.957 15.0781C11.4492 15.0781 10.3086 14.0078 10.3086 12.1719C10.3086 10.3281 11.4492 9.26562 12.957 9.26562C14.4492 9.26562 15.5977 10.3281 15.5977 12.1719ZM14.4023 12.1719C14.4023 10.9609 13.832 10.3047 12.957 10.3047C12.082 10.3047 11.5039 10.9609 11.5039 12.1719C11.5039 13.3828 12.082 14.0391 12.957 14.0391C13.832 14.0391 14.4023 13.3828 14.4023 12.1719ZM16.2414 15V9.34375H18.4602C19.7492 9.34375 20.4836 10.1328 20.4836 11.25C20.4836 12.3828 19.7336 13.1562 18.4289 13.1562H17.4133V15H16.2414ZM17.4133 12.2109H18.2414C18.9367 12.2109 19.2727 11.8203 19.2727 11.25C19.2727 10.6875 18.9367 10.3047 18.2414 10.3047H17.4133V12.2109ZM12.9766 28.1172C11.1133 28.1172 9.77734 27.0859 9.74219 25.6094H11.5234C11.5586 26.2422 12.168 26.6641 12.9883 26.6641C13.832 26.6641 14.4414 26.1836 14.4297 25.5039C14.4414 24.8125 13.8203 24.3203 12.8242 24.3203H12.0391V23.0195H12.8242C13.6562 23.0195 14.2422 22.5625 14.2422 21.8945C14.2422 21.25 13.75 20.8047 13 20.8047C12.25 20.8047 11.6289 21.2266 11.6055 21.8711H9.91797C9.94141 20.4062 11.2656 19.3984 13 19.3984C14.7695 19.3984 15.9531 20.4414 15.9414 21.7891C15.9531 22.7383 15.2852 23.418 14.3359 23.582V23.6523C15.5781 23.8047 16.2695 24.5664 16.2578 25.6211C16.2695 27.0742 14.8867 28.1172 12.9766 28.1172Z" fill="white"/>
</svg>
