<svg width="26" height="45" viewBox="0 0 26 45" fill="none" xmlns="http://www.w3.org/2000/svg">
<path d="M0 1C0 0.447715 0.447715 0 1 0H25C25.5523 0 26 0.447715 26 1V43.0744C26 43.8844 25.0874 44.3583 24.4248 43.8925L13.5752 36.2638C13.2301 36.0212 12.7699 36.0212 12.4248 36.2638L1.57518 43.8925C0.912591 44.3583 0 43.8844 0 43.0744V1Z" fill="#0EA900"/>
<path d="M5.50859 10.3125V9.34375H10.1414V10.3125H8.40703V15H7.24297V10.3125H5.50859ZM15.5977 12.1719C15.5977 14.0156 14.4492 15.0781 12.957 15.0781C11.4492 15.0781 10.3086 14.0078 10.3086 12.1719C10.3086 10.3281 11.4492 9.26562 12.957 9.26562C14.4492 9.26562 15.5977 10.3281 15.5977 12.1719ZM14.4023 12.1719C14.4023 10.9609 13.832 10.3047 12.957 10.3047C12.082 10.3047 11.5039 10.9609 11.5039 12.1719C11.5039 13.3828 12.082 14.0391 12.957 14.0391C13.832 14.0391 14.4023 13.3828 14.4023 12.1719ZM16.2414 15V9.34375H18.4602C19.7492 9.34375 20.4836 10.1328 20.4836 11.25C20.4836 12.3828 19.7336 13.1562 18.4289 13.1562H17.4133V15H16.2414ZM17.4133 12.2109H18.2414C18.9367 12.2109 19.2727 11.8203 19.2727 11.25C19.2727 10.6875 18.9367 10.3047 18.2414 10.3047H17.4133V12.2109ZM10.0059 28L9.99414 26.7227L13.041 23.9219C13.8379 23.1602 14.2598 22.6914 14.2598 22.0234C14.2598 21.2734 13.6855 20.8047 12.9121 20.8047C12.1152 20.8047 11.5996 21.3086 11.5996 22.1172H9.92383C9.91211 20.4531 11.1426 19.3984 12.9355 19.3984C14.752 19.3984 15.959 20.4297 15.959 21.9062C15.959 22.8672 15.4902 23.6641 13.7441 25.2461L12.4551 26.5V26.5469H16.0762V28H10.0059Z" fill="white"/>
</svg>
